<svg width="82" height="82" viewBox="0 0 82 82" fill="none" xmlns="http://www.w3.org/2000/svg">
<path d="M40.71 81.42C63.1935 81.42 81.42 63.1935 81.42 40.71C81.42 18.2265 63.1935 0 40.71 0C18.2265 0 0 18.2265 0 40.71C0 63.1935 18.2265 81.42 40.71 81.42Z" fill="white"/>
<path d="M42.55 29.9497C41.83 29.1897 40.62 29.1797 39.88 29.9197L39.85 29.9497L25.64 44.1597C24.37 45.4297 24.37 47.4997 25.64 48.7697C26.91 50.0397 28.98 50.0397 30.25 48.7697L37.94 41.0797V62.9497C37.94 64.7497 39.4 66.2097 41.2 66.2097C43 66.2097 44.46 64.7497 44.46 62.9497V41.0797L52.15 48.7697C53.42 50.0397 55.49 50.0397 56.76 48.7697C58.03 47.4997 58.03 45.4297 56.76 44.1597L42.55 29.9497Z" fill="#2E4FF1"/>
<path d="M64.4997 18.21H17.8996C16.0992 18.21 14.6396 19.6695 14.6396 21.47C14.6396 23.2704 16.0992 24.73 17.8996 24.73H64.4997C66.3001 24.73 67.7596 23.2704 67.7596 21.47C67.7596 19.6695 66.3001 18.21 64.4997 18.21Z" fill="#2E4FF1"/>
</svg>
